<svg xmlns="http://www.w3.org/2000/svg" viewBox="0 0 1501 280" role="img" aria-label="Calcagnoto Advogados">
  <defs>
    <linearGradient id="calcGold" x1="0" y1="0" x2="1" y2="0">
      <stop offset="0%" stop-color="#f3d78e"/>
      <stop offset="100%" stop-color="#a3894c"/>
    </linearGradient>
  </defs>
  <rect width="1501" height="280" fill="#171f36"/>
  <g fill="none" stroke="url(#calcGold)" stroke-width="5" stroke-linecap="round" stroke-linejoin="round">
    <path d="M186 43C142 15 84 21 44 64 4 107 6 170 48 210 88 248 145 252 192 220"/>
    <path d="M181 86C150 58 102 58 73 86 43 113 42 160 72 187 102 216 149 216 181 190"/>
    <path d="M57 49C84 28 124 26 154 46 165 53 175 61 184 72"/>
  </g>
  <text x="512" y="140" fill="url(#calcGold)" font-size="78" font-family="Avenir Next, Montserrat, Helvetica, Arial, sans-serif" letter-spacing="4">CALCAGNOTO</text>
  <text x="515" y="214" fill="#f4f7ff" font-size="52" font-family="Avenir Next, Montserrat, Helvetica, Arial, sans-serif" letter-spacing="11">ADVOGADOS</text>
</svg>
