<svg xmlns="http://www.w3.org/2000/svg" viewBox="0 0 1500 280" role="img" aria-label="Logo completa Calcagnoto Advogados">
  <defs>
    <linearGradient id="goldText" x1="0" y1="0" x2="1" y2="0">
      <stop offset="0%" stop-color="#f3d78e"/>
      <stop offset="100%" stop-color="#a3894c"/>
    </linearGradient>
  </defs>
  <rect width="1500" height="280" fill="#171f36"/>
  <g transform="translate(40 24)">
    <path d="M238 24 C176 -10 92 -10 40 34 C-6 74 -8 138 34 186 C88 246 178 248 238 206" fill="none" stroke="url(#goldText)" stroke-width="6" stroke-linecap="round" stroke-linejoin="round"/>
    <path d="M292 62 C244 24 172 24 124 62 C78 100 78 146 124 184 C172 222 244 222 292 184" fill="none" stroke="url(#goldText)" stroke-width="6" stroke-linecap="round" stroke-linejoin="round"/>
    <path d="M142 24 C168 2 220 -2 258 30" fill="none" stroke="url(#goldText)" stroke-width="6" stroke-linecap="round"/>
  </g>
  <text x="500" y="138" fill="url(#goldText)" font-size="100" font-family="Avenir, Montserrat, Helvetica, Arial, sans-serif" letter-spacing="6">CALCAGNOTO</text>
  <text x="505" y="214" fill="#f4f6fb" font-size="62" font-family="Avenir, Montserrat, Helvetica, Arial, sans-serif" letter-spacing="16">ADVOGADOS</text>
</svg>
